    <svg width="24" height="24" viewBox="0 0 24 24" fill="none" xmlns="http://www.w3.org/2000/svg">
      <g filter="url(#filter0_d)">
      <path fill-rule="evenodd" clip-rule="evenodd" d="M12 20C16.4183 20 20 16.4183 20 12C20 7.58172 16.4183 4 12 4C7.58172 4 4 7.58172 4 12C4 16.4183 7.58172 20 12 20Z" fill="#E4E4E4"/>
      <path fill-rule="evenodd" clip-rule="evenodd" d="M12 20C16.4183 20 20 16.4183 20 12C20 7.58172 16.4183 4 12 4C7.58172 4 4 7.58172 4 12C4 16.4183 7.58172 20 12 20Z" stroke="white" stroke-width="2"/>
      </g>
      <path d="M9.5 8.5H14.5V9C14.5 10.3807 13.3807 11.5 12 11.5C10.6193 11.5 9.5 10.3807 9.5 9V8.5Z" stroke="white"/>
      <path d="M14.5 15.5L9.5 15.5L9.5 15C9.5 13.6193 10.6193 12.5 12 12.5C13.3807 12.5 14.5 13.6193 14.5 15L14.5 15.5Z" stroke="white"/>
      <defs>
      <filter id="filter0_d" x="0.5" y="0.5" width="23" height="23" filterUnits="userSpaceOnUse" color-interpolation-filters="sRGB">
      <feFlood flood-opacity="0" result="BackgroundImageFix"/>
      <feColorMatrix in="SourceAlpha" type="matrix" values="0 0 0 0 0 0 0 0 0 0 0 0 0 0 0 0 0 0 127 0" result="hardAlpha"/>
      <feOffset/>
      <feGaussianBlur stdDeviation="1.5"/>
      <feColorMatrix type="matrix" values="0 0 0 0 0 0 0 0 0 0 0 0 0 0 0 0 0 0 0.229223 0"/>
      <feBlend mode="normal" in2="BackgroundImageFix" result="effect1_dropShadow"/>
      <feBlend mode="normal" in="SourceGraphic" in2="effect1_dropShadow" result="shape"/>
      </filter>
      </defs>
      </svg>